<svg width="56" height="56" viewBox="0 0 56 56" fill="none" xmlns="http://www.w3.org/2000/svg">
<rect x="2" y="2" width="52" height="52" rx="26" fill="white"/>
<rect x="2" y="2" width="52" height="52" rx="26" stroke="#0A73B9" stroke-width="4"/>
<path d="M28.4125 38.5C28.7125 38.475 28.9688 38.3563 29.1813 38.1438C29.3938 37.9313 29.5 37.675 29.5 37.375C29.5 37.025 29.3875 36.7438 29.1625 36.5312C28.9375 36.3188 28.65 36.225 28.3 36.25C27.275 36.325 26.1875 36.0438 25.0375 35.4062C23.8875 34.7688 23.1625 33.6125 22.8625 31.9375C22.8125 31.6625 22.6813 31.4375 22.4688 31.2625C22.2563 31.0875 22.0125 31 21.7375 31C21.3875 31 21.1 31.1313 20.875 31.3938C20.65 31.6562 20.575 31.9625 20.65 32.3125C21.075 34.5875 22.075 36.2125 23.65 37.1875C25.225 38.1625 26.8125 38.6 28.4125 38.5ZM28 43C24.575 43 21.7188 41.825 19.4313 39.475C17.1438 37.125 16 34.2 16 30.7C16 28.2 16.9938 25.4813 18.9813 22.5438C20.9688 19.6063 23.975 16.425 28 13C32.025 16.425 35.0312 19.6063 37.0188 22.5438C39.0063 25.4813 40 28.2 40 30.7C40 34.2 38.8563 37.125 36.5688 39.475C34.2812 41.825 31.425 43 28 43Z" fill="#0A73B9"/>
</svg>
