<svg width="907" height="295" viewBox="0 0 907 295" fill="none" xmlns="http://www.w3.org/2000/svg">
<path fill-rule="evenodd" clip-rule="evenodd" d="M178.051 0H200.698V258.021H178.051V229.47C161.364 250.814 138.717 261.461 110.11 261.461C86.551 261.461 66.1907 252.631 49.0413 234.959C31.8918 217.542 23.3171 196.553 23.3171 172.027C23.3171 147.488 31.8918 126.364 49.0413 108.692C66.1907 91.3003 86.551 82.6044 110.11 82.6044C138.717 82.6044 161.364 93.2639 178.051 114.595V0ZM112.506 239.105C131.042 239.105 146.817 232.568 159.831 219.494C172.87 206.42 179.389 190.601 179.389 172.027C179.389 153.44 172.87 137.621 159.831 124.571C146.817 111.497 131.042 104.96 112.506 104.96C94.2257 104.96 78.5602 111.497 65.5217 124.571C52.4833 137.621 45.9641 153.44 45.9641 172.027C45.9641 190.601 52.4833 206.42 65.5217 219.494C78.5602 232.568 94.2257 239.105 112.506 239.105Z" fill="white"/>
<path fill-rule="evenodd" clip-rule="evenodd" d="M264.455 85.9827H286.749V258.021H264.455V85.9827Z" fill="white"/>
<path fill-rule="evenodd" clip-rule="evenodd" d="M494.282 85.9831H516.576V258.022H494.282V227.434C478.056 250.131 454.959 261.461 425.003 261.461C401.444 261.461 381.071 252.631 363.934 234.959C346.772 217.543 338.198 196.553 338.198 172.027C338.198 147.488 346.772 126.364 363.934 108.692C381.071 91.3006 401.444 82.6047 425.003 82.6047C454.959 82.6047 478.056 93.9471 494.282 116.632V85.9831ZM427.387 239.106C445.935 239.106 461.71 232.568 474.724 219.494C487.762 206.42 494.282 190.602 494.282 172.027C494.282 153.44 487.762 137.622 474.724 124.572C461.71 111.497 445.935 104.96 427.387 104.96C409.106 104.96 393.453 111.497 380.402 124.572C367.364 137.622 360.844 153.44 360.844 172.027C360.844 190.602 367.364 206.42 380.402 219.494C393.453 232.568 409.106 239.106 427.387 239.106Z" fill="white"/>
<path fill-rule="evenodd" clip-rule="evenodd" d="M650.341 82.6047C656.52 82.6047 662.467 83.739 668.22 85.9831V109.046C662.042 106.326 656.191 104.96 650.694 104.96C637.193 104.96 625.87 110.363 616.748 121.132C607.346 132.097 602.663 145.634 602.663 161.697V258.022H580.369V85.9831H602.663V115.583C612.71 93.6057 628.606 82.6047 650.341 82.6047Z" fill="white"/>
<path fill-rule="evenodd" clip-rule="evenodd" d="M848.618 85.9831H870.912V258.022H848.618V227.434C832.38 250.131 809.284 261.461 779.339 261.461C755.768 261.461 735.407 252.631 718.27 234.959C701.108 217.543 692.534 196.553 692.534 172.027C692.534 147.488 701.108 126.364 718.27 108.692C735.407 91.3006 755.768 82.6047 779.339 82.6047C809.284 82.6047 832.38 93.9471 848.618 116.632V85.9831ZM781.723 239.106C800.259 239.106 816.046 232.568 829.048 219.494C842.098 206.42 848.618 190.602 848.618 172.027C848.618 153.44 842.098 137.622 829.048 124.572C816.046 111.497 800.259 104.96 781.723 104.96C763.442 104.96 747.777 111.497 734.738 124.572C721.7 137.622 715.181 153.44 715.181 172.027C715.181 190.602 721.7 206.42 734.738 219.494C747.777 232.568 763.442 239.106 781.723 239.106Z" fill="white"/>
<path d="M289.06 30.4783C289.06 32.2589 288.719 33.9664 288.026 35.6006C287.333 37.2471 286.36 38.6863 285.083 39.9425C283.818 41.1987 282.346 42.1622 280.692 42.8451C279.014 43.5403 277.299 43.8696 275.486 43.8696C273.686 43.8696 271.959 43.5403 270.293 42.8451C268.639 42.1622 267.167 41.1987 265.902 39.9425C264.625 38.6863 263.64 37.2471 262.947 35.6006C262.266 33.9664 261.913 32.2589 261.913 30.4783C261.913 28.6976 262.266 26.9902 262.947 25.3559C263.64 23.6972 264.625 22.2581 265.902 21.0019C267.167 19.7457 268.639 18.7822 270.293 18.0992C271.959 17.4162 273.686 17.0747 275.486 17.0747C277.299 17.0747 279.014 17.4162 280.692 18.0992C282.346 18.7822 283.818 19.7457 285.083 21.0019C286.36 22.2581 287.333 23.6972 288.026 25.3559C288.719 26.9902 289.06 28.6976 289.06 30.4783Z" fill="white"/>
<path d="M275.487 13.7573C275.098 13.7573 274.781 13.4402 274.781 13.0499V5.39073C274.781 4.98825 275.098 4.68335 275.487 4.68335C275.888 4.68335 276.192 4.98825 276.192 5.39073V13.0499C276.192 13.428 275.876 13.7573 275.487 13.7573ZM276.192 55.5656V47.8943C276.192 47.504 275.888 47.1869 275.487 47.1869C275.098 47.1869 274.781 47.504 274.781 47.8943V55.5656C274.781 55.9559 275.098 56.2608 275.487 56.2608C275.888 56.2608 276.192 55.9559 276.192 55.5656ZM258.52 30.4782C258.52 30.0757 258.216 29.7708 257.827 29.7708H250.067C249.678 29.7708 249.374 30.0757 249.374 30.4782C249.374 30.8685 249.678 31.1734 250.067 31.1734H257.827C258.216 31.1734 258.52 30.8685 258.52 30.4782ZM301.612 30.4782C301.612 30.0757 301.308 29.7708 300.919 29.7708H293.159C292.77 29.7708 292.466 30.0757 292.466 30.4782C292.466 30.8685 292.77 31.1734 293.159 31.1734H300.919C301.308 31.1734 301.612 30.8685 301.612 30.4782ZM263.494 18.6479C263.762 18.3552 263.762 17.9284 263.482 17.6478L257.997 12.2328C257.717 11.9644 257.291 11.9644 257.012 12.245C256.732 12.5255 256.732 12.9645 257.024 13.2572L262.497 18.6723C262.643 18.7943 262.801 18.8553 262.996 18.8553C263.178 18.8553 263.348 18.7821 263.494 18.6479ZM293.962 48.7114C294.242 48.4431 294.242 48.004 293.95 47.7113L288.477 42.2962C288.185 42.0279 287.747 42.0279 287.467 42.3084C287.2 42.6011 287.2 43.0402 287.479 43.3207L292.953 48.7358C293.098 48.8822 293.281 48.9309 293.451 48.9309C293.646 48.9309 293.828 48.8578 293.962 48.7114ZM257.997 48.7114L263.482 43.2963C263.762 43.0402 263.762 42.5889 263.494 42.2962C263.239 42.0157 262.789 42.0157 262.497 42.284L257.024 47.7113C256.732 47.9918 256.732 48.4431 257.012 48.7114C257.146 48.8578 257.328 48.9309 257.498 48.9309C257.693 48.9309 257.863 48.8578 257.997 48.7114ZM288.477 18.6723L293.95 13.2572C294.242 12.9767 294.242 12.5255 293.962 12.245C293.694 11.9644 293.244 11.9644 292.953 12.2328L287.479 17.6478C287.2 17.904 287.2 18.3552 287.467 18.6479C287.613 18.7821 287.796 18.8553 287.978 18.8553C288.16 18.8553 288.343 18.7821 288.477 18.6723ZM268.992 14.9891C269.333 14.8305 269.491 14.4159 269.369 14.0744L267.982 10.7692C267.824 10.4277 267.411 10.257 267.046 10.3911C266.705 10.5497 266.523 10.9644 266.669 11.3059L268.055 14.611C268.153 14.8793 268.432 15.0501 268.7 15.0501C268.81 15.0501 268.895 15.0379 268.992 14.9891ZM283.916 50.5652C284.268 50.4067 284.439 50.0042 284.293 49.6505L282.918 46.3576C282.76 46.0039 282.347 45.8453 281.982 45.9673C281.629 46.138 281.459 46.5405 281.605 46.8942L282.991 50.1871C283.101 50.4555 283.368 50.6262 283.624 50.6262C283.733 50.6262 283.83 50.6018 283.916 50.5652ZM256.063 39.174L259.396 37.8203C259.76 37.6739 259.931 37.247 259.773 36.8933C259.639 36.5153 259.225 36.3567 258.86 36.5031L255.528 37.869C255.163 38.0154 254.981 38.4423 255.151 38.7959C255.26 39.0643 255.528 39.235 255.783 39.235C255.868 39.235 255.978 39.2106 256.063 39.174ZM292.101 24.4655L295.446 23.0873C295.811 22.941 295.981 22.5263 295.823 22.1726C295.677 21.8067 295.251 21.636 294.911 21.7945L291.578 23.1605C291.201 23.2947 291.031 23.7215 291.177 24.063C291.298 24.3435 291.578 24.5021 291.834 24.5021C291.943 24.4899 292.028 24.4899 292.101 24.4655ZM282.918 14.6232L284.293 11.3302C284.463 10.9766 284.281 10.5497 283.916 10.4033C283.551 10.257 283.149 10.4277 282.991 10.7814L281.605 14.0866C281.447 14.4403 281.617 14.8549 281.982 15.0013C282.067 15.0501 282.176 15.0623 282.261 15.0623C282.541 15.0501 282.797 14.8915 282.918 14.6232ZM267.982 50.1871L269.369 46.8942C269.515 46.5405 269.357 46.1136 268.992 45.9673C268.603 45.8331 268.201 45.9917 268.055 46.3576L266.669 49.6505C266.511 50.0042 266.693 50.4189 267.046 50.5652C267.143 50.614 267.228 50.6262 267.314 50.6262C267.605 50.6262 267.861 50.4555 267.982 50.1871ZM259.785 24.0508C259.931 23.6849 259.76 23.2825 259.408 23.1483L256.075 21.7701C255.698 21.636 255.297 21.8067 255.163 22.1604C255.017 22.5263 255.187 22.9288 255.54 23.0751L258.873 24.4411C258.958 24.4899 259.055 24.4899 259.152 24.4899C259.408 24.4899 259.688 24.3313 259.785 24.0508ZM295.835 38.7959C295.981 38.4301 295.811 38.0154 295.458 37.869L292.101 36.5031C291.736 36.3689 291.323 36.5275 291.177 36.8933C291.055 37.2592 291.213 37.6739 291.578 37.8203L294.911 39.174C294.996 39.2106 295.093 39.235 295.166 39.235C295.458 39.235 295.726 39.0643 295.835 38.7959Z" fill="white"/>
<path d="M0.5 293H906.5" stroke="white" stroke-width="4"/>
</svg>
