<svg width="56" height="56" viewBox="0 0 56 56" fill="none" xmlns="http://www.w3.org/2000/svg">
<rect x="2" y="2" width="52" height="52" rx="26" fill="white"/>
<rect x="2" y="2" width="52" height="52" rx="26" stroke="#0AB96D" stroke-width="4"/>
<path d="M35.5 43C33.425 43 31.6562 42.2688 30.1938 40.8063C28.7313 39.3438 28 37.575 28 35.5C28 33.425 28.7313 31.6562 30.1938 30.1938C31.6562 28.7313 33.425 28 35.5 28C37.575 28 39.3438 28.7313 40.8063 30.1938C42.2688 31.6562 43 33.425 43 35.5C43 37.575 42.2688 39.3438 40.8063 40.8063C39.3438 42.2688 37.575 43 35.5 43ZM35.5 40C35 39.35 34.6188 38.65 34.3563 37.9C34.0938 37.15 33.9625 36.35 33.9625 35.5C33.9625 34.65 34.1 33.85 34.375 33.1C34.65 32.35 35.025 31.65 35.5 31C34.25 31 33.1875 31.4375 32.3125 32.3125C31.4375 33.1875 31 34.25 31 35.5C31 36.75 31.4375 37.8125 32.3125 38.6875C33.1875 39.5625 34.25 40 35.5 40ZM41.1625 25H38.05C37.4 22.8 36.1625 21 34.3375 19.6C32.5125 18.2 30.4 17.5 28 17.5C25.075 17.5 22.5938 18.5188 20.5563 20.5563C18.5188 22.5938 17.5 25.075 17.5 28C17.5 29.8 17.9063 31.45 18.7188 32.95C19.5312 34.45 20.625 35.675 22 36.625V32.5H25V41.5H16V38.5H19.525C17.975 37.25 16.75 35.7188 15.85 33.9062C14.95 32.0938 14.5 30.125 14.5 28C14.5 26.125 14.8563 24.3688 15.5688 22.7313C16.2813 21.0938 17.2438 19.6688 18.4563 18.4563C19.6688 17.2438 21.0938 16.2813 22.7313 15.5688C24.3688 14.8563 26.125 14.5 28 14.5C31.225 14.5 34.0563 15.4938 36.4938 17.4813C38.9313 19.4688 40.4875 21.975 41.1625 25Z" fill="#0AB96D"/>
</svg>
