<svg width="241" height="225" viewBox="0 0 241 225" fill="none" xmlns="http://www.w3.org/2000/svg">
<path d="M79.2798 22.7855C81.4475 21.863 83.582 20.8515 85.7891 20.031C95.0697 16.5873 104.698 14.7377 114.556 14.2056C125.841 13.5967 136.924 14.9564 147.751 18.2376C159.691 21.8565 170.565 27.5449 180.366 35.2788C188.86 41.9814 196.044 49.8931 201.956 58.9606C202.355 59.5727 202.983 60.1229 202.454 61.0575C202.238 61.4402 202.45 62.0671 202.469 62.6891C203.03 62.5736 203.494 62.4787 204.12 62.3495C205.496 64.927 206.887 67.5254 208.35 70.2669C206.982 70.4592 205.832 70.6802 204.676 70.742C204.377 70.7589 203.94 70.3466 203.755 70.0225C201.915 66.7895 200.265 63.4359 198.255 60.3159C196.532 57.6407 194.477 55.1679 192.454 52.6996C182.9 41.0389 171.208 32.1704 157.444 26.0667C146.634 21.2753 135.311 18.6519 123.495 18.1411C117.009 17.8606 110.589 18.3784 104.168 19.2739C99.8994 19.8693 95.7674 20.9831 91.6987 22.2711C87.6236 23.5623 83.5893 25.0789 79.7169 26.8862C75.8147 28.7091 72.0583 30.8867 68.3727 33.1299C63.415 36.1514 58.9567 39.8509 54.7036 43.8076C51.8783 46.4356 49.2885 49.2776 46.8702 52.2671C46.0571 53.2738 45.3253 53.7862 44.0833 53.2354C43.8884 53.1484 43.6498 53.1568 43.3742 53.1131C42.7646 54.0889 43.3672 55.0133 43.4194 55.9372C43.4336 56.2006 43.4684 56.5298 43.3356 56.7223C42.135 58.4973 40.899 60.2476 39.6051 62.1066C38.7695 61.4255 38.0311 61.8908 37.6696 62.6006C37.4975 62.9359 38.0145 63.6252 38.2971 64.352C35.1445 69.7214 32.259 75.5612 30.2874 81.7943C29.0306 85.7692 28.0564 89.8371 26.9833 93.8686C26.8087 94.5269 26.3907 94.8191 25.9335 95.27C24.917 96.2755 23.7042 95.851 22.4423 96.4265C22.82 94.4995 23.1212 92.7433 23.5142 91.0063C26.491 77.8706 31.9036 65.834 39.7695 54.908C45.4398 47.0293 52.1373 40.1549 59.8247 34.2466C60.2347 33.9304 60.6869 33.6221 61.1705 33.4557C62.1203 33.13 63.2149 33.054 63.3471 31.7037C63.3589 31.5762 63.622 31.466 63.776 31.3597C68.4985 28.1264 73.4609 25.3171 78.6629 22.9294C78.8646 22.837 79.0946 22.8001 79.3097 22.7378C79.2685 22.8351 79.2156 22.9295 79.1888 23.0317C79.0938 23.3791 79.008 23.7275 78.9178 24.0765C79.2638 24.1171 79.6817 24.2964 79.9398 24.1663C80.3127 23.9766 80.5691 23.5584 80.8758 23.2385C80.6344 23.0321 80.4191 22.7352 80.142 22.6483C79.8892 22.5717 79.5665 22.7292 79.2744 22.7794L79.2798 22.7855ZM68.289 32.112C69.0557 31.2629 69.8352 30.4235 70.553 29.5355C70.596 29.4837 70.1776 28.8469 69.9123 28.7949C69.1655 28.6482 67.3393 29.9528 67.09 30.6972C66.8007 31.5638 67.1718 32.0265 68.289 32.112ZM86.4316 21.7918C87.7163 22.467 88.9167 22.3807 89.6186 21.4446C89.8745 21.1043 89.9702 20.4364 89.8117 20.056C89.7028 19.8013 88.9999 19.6416 88.5965 19.696C87.4471 19.8529 86.8141 20.6626 86.4316 21.7918ZM25.0866 89.9593C26.3055 90.264 27.1412 89.9062 27.168 88.9758C27.18 88.6057 26.7516 88.0115 26.3937 87.8856C25.8076 87.6797 25.1427 88.7662 25.0866 89.9593ZM109.646 17.5316C109.946 17.0501 110.222 16.7573 110.289 16.4207C110.313 16.2984 109.763 15.8814 109.598 15.9412C109.272 16.058 109.032 16.4143 108.758 16.6703C108.998 16.9042 109.239 17.1381 109.646 17.5316Z" fill="#C7C9D9"/>
<path d="M102.25 209.524C102.736 209.034 103.119 208.722 103.407 208.334C103.61 208.06 103.679 207.689 103.809 207.362C103.409 207.21 102.95 206.854 102.621 206.948C101.998 207.129 101.354 207.474 100.887 207.924C99.9281 208.848 98.9665 208.976 97.6632 208.672C85.0932 205.739 73.523 200.576 62.9663 193.152C56.7833 188.804 51.1607 183.812 46.1441 178.145C46.0465 178.035 45.9649 177.909 45.9256 177.857C46.9433 177.055 47.9407 176.272 48.8738 175.535C51.6247 178.178 54.4189 181.08 57.4391 183.721C71.0035 195.583 86.7014 202.964 104.463 205.922C105.611 206.113 106.776 206.215 107.922 206.418C108.608 206.539 109.422 206.287 109.711 207.448C109.859 208.047 110.69 207.791 111.236 207.366C111.561 207.112 112.031 206.866 112.418 206.891C119.769 207.393 127.078 207.094 134.36 205.972C134.798 205.904 135.311 206.127 135.752 206.305C136.5 206.607 137.105 206.659 137.485 205.773C137.566 205.585 137.804 205.39 138.004 205.339C140.119 204.806 142.243 204.299 144.364 203.797C144.574 203.747 144.851 203.701 145.017 203.795C145.695 204.18 146.022 203.857 146.528 203.383C147.011 202.933 147.793 202.778 148.463 202.562C159.251 199.119 169.074 193.861 177.945 186.825C190.301 177.025 199.61 164.857 205.988 150.434C206.733 148.748 207.388 147.024 208.121 145.23C208.993 145.572 209.707 145.257 209.846 144.345C209.906 143.945 209.395 143.459 209.115 142.965C210.135 138.763 211.196 134.341 212.301 129.933C212.368 129.667 212.753 129.352 213.037 129.294C214.104 129.08 215.188 128.966 216.516 128.78C216.106 130.881 215.723 132.838 215.326 134.871C214.693 134.77 214.156 134.685 213.513 134.581C213.286 135.771 213.334 136.798 214.073 137.767C214.269 138.026 214.353 138.508 214.266 138.829C211.782 147.935 208.032 156.494 203.063 164.507C196.503 175.087 188.243 184.119 178.282 191.576C170.06 197.728 161.138 202.6 151.354 205.725C146.456 207.29 141.402 208.362 136.417 209.646C136.021 209.747 135.603 209.767 135.207 209.823C134.488 208.265 134.251 208.271 132.932 209.41C132.376 209.891 131.624 210.342 130.918 210.421C121.525 211.487 112.154 211.312 102.828 209.674C102.692 209.649 102.56 209.604 102.244 209.52L102.25 209.524ZM195.356 171.459C196.669 171.735 197.421 171.402 197.438 170.43C197.444 170.054 197.005 169.466 196.64 169.334C196.082 169.135 195.383 170.318 195.356 171.459ZM202.37 159.152C201.971 159.984 201.668 160.463 201.534 160.988C201.498 161.135 202.141 161.616 202.166 161.597C202.638 161.176 203.088 160.719 203.467 160.215C203.496 160.177 202.951 159.711 202.37 159.154L202.37 159.152ZM96.3282 205.315C95.452 205.434 94.6962 205.629 94.6054 206.608C94.5969 206.694 95.3398 207.008 95.6748 206.938C96.4862 206.764 96.942 206.286 96.3282 205.315ZM159.874 199.405L160.045 199.957C160.579 199.94 161.115 199.921 161.65 199.904L161.569 198.244C161.446 198.198 161.321 198.153 161.198 198.107C160.757 198.539 160.315 198.97 159.873 199.403L159.874 199.405Z" fill="#C7C9D9"/>
<path d="M63.8451 154.266L63.2986 150.377C63.7235 150.297 64.1122 150.203 64.5064 150.148C103.898 144.609 143.293 139.077 182.681 133.512C183.808 133.354 184.091 133.68 184.206 134.723C184.487 137.297 184.536 137.303 181.972 137.664C149.148 142.277 116.326 146.885 83.501 151.496C77.428 152.35 71.3555 153.208 65.2828 154.063C64.8438 154.125 64.4049 154.187 63.8451 154.266ZM105.273 148.299C106.647 146.864 106.704 146.325 105.661 145.082C104.151 145.97 103.986 147.164 105.273 148.299ZM83.268 150.634C83.9649 150.134 84.9635 149.943 84.6321 148.852C84.5723 148.655 83.6325 148.467 83.3436 148.654C82.6298 149.115 82.552 149.829 83.268 150.634ZM93.7596 148.057C93.8859 148.078 94.0118 148.097 94.1381 148.118C94.2395 147.784 94.5241 147.323 94.3985 147.143C94.2097 146.872 93.74 146.797 93.3892 146.64C93.3222 146.732 93.2551 146.824 93.1907 146.917C93.3812 147.298 93.5691 147.676 93.7596 148.057Z" fill="#C7C9D9"/>
<path d="M175.761 74.8011L55.1213 91.7559L54.5903 87.9774C54.9819 87.904 55.4042 87.8058 55.832 87.7456C84.4916 83.7224 113.154 79.7033 141.813 75.6777C152.509 74.1747 163.207 72.6757 173.895 71.1255C174.992 70.9668 175.39 71.2517 175.429 72.3262C175.457 73.1072 175.632 73.8834 175.761 74.8011ZM141.776 77.6874C142.213 77.1409 142.498 76.7805 142.786 76.422C142.5 76.2425 142.13 75.8529 141.942 75.9274C141.516 76.0948 141.176 76.4903 140.803 76.7922C141.063 77.0325 141.323 77.2729 141.774 77.6899L141.776 77.6874Z" fill="#C7C9D9"/>
<path d="M193.488 153.687L193.72 155.334C194.006 155.355 194.29 155.377 194.629 155.405C194.588 155.548 194.573 155.699 194.505 155.816C191.545 160.998 188.069 165.809 184.108 170.262C180.089 174.779 175.669 178.864 170.789 182.44C170 183.018 169.208 183.591 168.39 184.125C167.716 184.563 167.17 185.241 166.111 184.793C165.738 184.635 164.832 185.144 164.488 185.593C161.762 189.184 157.564 190.348 153.782 192.182C152.726 192.694 151.516 192.876 150.408 193.294C148.812 193.898 147.279 194.688 145.658 195.211C139.513 197.196 133.218 198.481 126.773 198.948C124.135 199.138 121.485 199.281 118.84 199.259C116.099 199.235 113.349 199.088 110.624 198.806C107.936 198.529 105.253 198.107 102.603 197.578C99.953 197.052 97.31 196.428 94.7224 195.645C84.0169 192.411 74.2736 187.314 65.5297 180.31C60.2468 176.078 55.491 171.324 51.3592 165.955C50.9764 165.458 50.7225 164.773 50.6509 164.149C50.5694 163.44 50.2781 163.105 49.6621 162.817C49.1243 162.565 48.5363 162.199 48.2245 161.719C46.4492 158.983 44.7492 156.197 43.0066 153.401C44.8218 152.635 45.0072 152.703 45.8205 154.119C55.9711 171.799 70.5149 184.389 89.5005 191.734C103.83 197.278 118.643 198.672 133.755 196.063C151.227 193.047 166.315 185.247 178.982 172.788C179.664 172.116 180.525 171.612 181.146 170.894C182.583 169.225 184.01 167.537 185.279 165.741C187.885 162.057 190.385 158.299 192.925 154.569C193.069 154.357 193.2 154.135 193.483 153.683L193.488 153.687Z" fill="#C7C9D9"/>
<path d="M136.544 179.446C134.227 178.591 132.166 177.887 130.157 177.062C129.12 176.636 128.317 176.641 127.396 177.381C125.672 178.766 123.843 180.018 121.827 181.496C121.844 180.514 121.841 179.762 121.877 179.011C121.958 177.281 122.097 175.554 122.126 173.825C122.132 173.467 121.843 172.984 121.542 172.761C119.693 171.401 117.802 170.101 115.926 168.777C115.784 168.676 115.659 168.549 115.368 168.297C117.738 167.648 119.922 166.984 122.14 166.471C123.155 166.237 123.637 165.748 123.923 164.763C124.549 162.6 125.303 160.474 126.076 158.113C127.162 159.716 128.157 161.152 129.119 162.607C130.778 165.113 130.77 165.105 133.746 165.028C135.495 164.983 137.248 164.991 139.264 164.971C137.677 166.919 136.283 168.682 134.827 170.395C134.196 171.138 133.915 171.772 134.344 172.792C135.055 174.488 135.552 176.274 136.132 178.025C136.259 178.41 136.36 178.803 136.546 179.443L136.544 179.446ZM132.983 170.421C133.424 169.885 133.724 169.518 134.026 169.151C133.694 168.968 133.301 168.575 133.05 168.654C132.655 168.773 132.358 169.211 132.02 169.515C132.285 169.764 132.549 170.013 132.985 170.423L132.983 170.421Z" fill="#C7C9D9"/>
<path d="M109.874 43.1336C111.308 45.2155 112.657 47.1287 113.956 49.0764C114.366 49.6891 114.768 49.9987 115.581 49.9668C117.971 49.8758 120.366 49.9191 123.05 49.908C121.606 51.7103 120.423 53.4004 119.016 54.8749C117.953 55.9876 117.8 56.9633 118.38 58.3577C119.156 60.2232 119.697 62.1882 120.426 64.3715C118.691 63.7436 117.106 63.3646 115.718 62.6193C113.443 61.4013 111.582 61.5805 109.707 63.4114C108.59 64.5019 107.175 65.2865 105.891 66.2061C105.866 66.2233 105.819 66.2117 105.624 66.2253C105.705 64.2827 105.627 62.3282 105.908 60.4285C106.17 58.6527 105.627 57.5872 104.096 56.7178C102.597 55.8668 101.239 54.7671 99.8248 53.7692C99.6575 53.6509 99.5225 53.4868 99.2353 53.2137C101.262 52.6543 103.107 52.0175 105.006 51.6545C106.698 51.332 107.661 50.6064 108.041 48.8255C108.447 46.9264 109.217 45.1045 109.869 43.132L109.874 43.1336ZM113.931 55.1183C114.603 54.7996 115.256 54.4905 115.684 54.2861C116.051 54.7197 116.331 55.2843 116.552 55.2625C116.986 55.2197 117.485 54.9322 117.78 54.5933C118.02 54.3171 118.068 53.8161 118.069 53.4155C118.07 53.0996 117.927 52.5683 117.741 52.5165C117.459 52.4396 116.901 52.6003 116.787 52.8246C116.431 53.5267 115.934 53.4524 115.302 53.4062C114.15 53.3187 113.755 53.8387 113.928 55.1186L113.931 55.1183Z" fill="#C7C9D9"/>
<path d="M195.818 71.9457C193.915 72.4099 193.926 72.4039 193.05 70.8681C192.51 69.9211 191.955 68.9786 191.372 68.0584C190.825 67.1948 190.109 66.3848 191.264 65.0487C189.228 65.479 188.837 64.0764 188.09 63.1152C186.381 60.9162 184.662 58.7255 183.075 56.6948C183.144 56.0695 183.202 55.5534 183.259 55.0351C182.745 54.9998 182.231 54.9668 181.521 54.9179C179.434 52.9551 177.193 50.7256 174.825 48.6444C167.371 42.0909 158.998 37.0097 149.707 33.5562C145.703 32.0688 141.525 31.052 137.416 29.8492C136.712 29.6439 135.98 29.5866 136.201 28.5304C136.234 28.3748 135.945 28.1501 135.803 27.9571C135.624 28.115 135.389 28.2419 135.284 28.4396C135.164 28.6601 135.163 28.944 135.078 29.3587C133.782 28.9001 132.243 29.4025 131.409 28.2933C130.553 28.3587 129.863 28.4922 129.186 28.4501C125.75 28.2397 122.316 27.9855 118.896 27.7455C119.014 27.2094 119.149 26.6092 119.286 25.9928C150.341 25.3282 181.396 43.8266 195.818 71.9457Z" fill="#C7C9D9"/>
<path d="M139.218 41.938C140.53 43.8793 141.69 45.5331 142.776 47.2338C143.168 47.8468 143.601 48.0879 144.323 48.0689C146.407 48.014 148.493 48.0273 150.807 48.0134C149.688 49.413 148.756 50.7728 147.625 51.9363C146.448 53.1496 146.064 54.272 146.851 55.9005C147.546 57.3382 147.893 58.9437 148.479 60.7307C146.673 60.083 145.019 59.6177 143.481 58.9001C142.052 58.2338 140.959 58.3416 139.758 59.3982C138.499 60.5088 137.052 61.4078 135.471 62.5566C135.51 61.2904 135.377 60.1993 135.605 59.1902C136.268 56.2552 135.369 54.2262 132.583 52.9633C131.617 52.5248 130.811 51.7297 129.716 50.9409C131.839 50.3634 133.728 49.8164 135.636 49.3493C136.549 49.1248 137.111 48.7484 137.372 47.7462C137.854 45.8937 138.523 44.0927 139.22 41.9377L139.218 41.938ZM141.091 55.717C140.089 56.1941 139.496 57.1424 139.938 57.6225C140.135 57.8374 140.794 57.9439 140.991 57.7857C141.742 57.1837 141.546 56.4401 141.091 55.717Z" fill="#C7C9D9"/>
<path d="M108.917 171.274C107.478 173.074 106.258 174.696 104.924 176.215C104.351 176.865 104.355 177.418 104.613 178.144C105.271 180.019 105.888 181.91 106.599 184.025C104.91 183.413 103.348 183.01 101.944 182.297C100.247 181.435 98.9391 181.614 97.5402 182.904C96.3698 183.984 94.9625 184.809 93.5235 185.846C93.6285 183.733 93.6995 181.785 93.8422 179.843C93.8662 179.526 94.2889 179.252 94.3657 178.921C94.4831 178.408 94.4612 177.862 94.4984 177.33C94.0793 177.355 93.66 177.393 93.2407 177.399C92.9148 177.404 92.5104 177.484 92.274 177.329C90.8348 176.383 89.4351 175.376 87.7999 174.238C89.4651 173.77 90.8958 173.21 92.3793 172.992C94.4132 172.695 95.5205 171.718 95.9061 169.668C96.1676 168.279 96.7645 166.953 97.2114 165.6C97.2207 165.569 97.261 165.547 97.4408 165.364C98.3067 167.089 99.9226 168.253 100.235 170.33C100.299 170.749 101.487 171.243 102.179 171.279C104.348 171.386 106.527 171.292 108.92 171.274L108.917 171.274Z" fill="#C7C9D9"/>
<path d="M145.876 166.032C148.195 165.393 150.228 164.876 152.227 164.25C152.671 164.112 153.146 163.658 153.342 163.228C153.745 162.343 153.887 161.339 154.288 160.455C154.687 159.575 155.274 158.781 155.888 157.77C157.039 159.457 158.009 160.968 159.085 162.4C159.36 162.769 159.958 163.085 160.416 163.099C162.514 163.156 164.616 163.099 167.002 163.079C165.464 164.991 164.095 166.703 162.702 168.397C162.605 168.516 162.326 168.546 162.144 168.521C160.774 168.339 160.304 168.933 160.791 170.331C161.362 170.075 161.929 169.817 162.571 169.527C163.266 171.615 163.932 173.606 164.671 175.822C163.013 175.224 161.45 174.829 160.051 174.115C158.351 173.248 157.026 173.441 155.624 174.707C154.463 175.756 153.099 176.579 151.827 177.504C151.712 177.465 151.594 177.427 151.479 177.388C151.707 176.068 151.944 174.751 152.153 173.426C152.193 173.171 152.145 172.896 152.097 172.638C152.047 172.359 151.839 172.065 151.891 171.82C152.145 170.64 151.638 169.968 150.652 169.358C149.092 168.395 147.634 167.266 145.878 166.03L145.876 166.032Z" fill="#C7C9D9"/>
<path d="M45.0801 72.1577C44.9004 71.6109 44.7437 71.1296 44.5845 70.6463C44.329 71.0711 44.1065 71.5189 43.8077 71.9109C43.5685 72.2237 43.237 72.4648 42.7234 72.5804C43.2415 71.6198 43.7424 70.6502 44.2806 69.7028C48.518 62.2543 53.7433 55.58 59.9362 49.6644C60.4232 49.1978 60.8517 48.9156 61.5873 49.0799C62.4549 49.2738 63.3313 49.2055 63.8784 48.1104C63.5223 47.8676 63.1435 47.6096 62.5955 47.2359C78.441 33.6027 96.7842 26.6269 117.633 26.0216C116.791 26.9888 116.154 28.0279 114.544 28.1122C101.317 28.7905 88.9645 32.5195 77.4729 39.0792C69.1015 43.8572 61.788 49.9395 55.4766 57.2378C55.1211 57.6493 54.5565 57.8889 54.0663 58.1705C53.4323 58.5342 52.8001 58.845 53.0908 59.7926C53.1534 59.9943 52.9522 60.3178 52.8024 60.5356C50.9559 63.2388 49.2329 66.0414 47.1804 68.5791C46.2679 69.7072 46.1597 71.196 45.0852 72.1616L45.0801 72.1577Z" fill="#C7C9D9"/>
<path d="M81.1614 50.1456C82.4423 52.0455 83.5947 53.6317 84.602 55.3069C85.0935 56.1233 85.6855 56.2895 86.5401 56.2609C88.5179 56.198 90.4969 56.2082 92.7523 56.1864C91.2458 58.0593 89.8925 59.7391 88.5434 61.416C86.9378 60.342 86.4033 60.3896 85.0492 61.8361C84.362 62.5688 83.7643 63.385 83.1154 64.1786C85.0818 65.0417 86.5086 64.665 88.3085 62.7509C88.6116 63.6075 88.8876 64.3856 89.1217 65.0437C88.8477 65.4666 88.645 65.7788 88.4423 66.0911C88.7235 66.2071 89.0153 66.3011 89.2801 66.447C89.451 66.5419 89.6513 66.6831 89.7158 66.8502C89.943 67.4429 90.118 68.0544 90.4009 68.9299C88.679 68.3116 87.0833 67.9089 85.6545 67.183C84.0091 66.3457 82.7587 66.613 81.4231 67.7846C80.2175 68.8418 78.838 69.7015 77.3648 70.7712C77.4627 68.4624 77.5872 66.3422 77.609 64.2226C77.6131 63.7964 77.3357 63.2199 76.9981 62.963C75.5021 61.8233 73.9348 60.7782 72.3961 59.6925C72.1959 59.5514 72.0145 59.3824 71.6994 59.1223C73.7688 58.5569 75.6664 57.9882 77.5913 57.5323C78.4975 57.318 78.9889 56.9149 79.2533 55.9854C79.7937 54.0789 80.4771 52.2142 81.1598 50.1504L81.1614 50.1456Z" fill="#C7C9D9"/>
<path d="M47.1475 173.309C46.1611 174.186 45.2192 175.024 44.21 175.918C38.8973 169.59 34.3963 162.651 30.7041 154.903C32.0365 154.716 33.2353 154.52 34.4406 154.403C34.6456 154.383 34.9825 154.652 35.0908 154.87C38.3675 161.514 42.4931 167.602 47.152 173.34C47.174 173.367 47.1755 173.41 47.1428 173.307L47.1475 173.309Z" fill="#C7C9D9"/>
<path d="M204.343 130.522C203.307 134.066 202.373 137.35 201.377 140.613C200.959 141.979 200.441 143.315 199.891 144.634C199.688 145.123 199.254 145.509 198.952 145.958C198.772 146.224 198.496 146.537 198.518 146.806C198.647 148.372 198.01 149.431 196.746 150.35C195.698 151.113 194.868 152.175 193.713 153.333C194.711 151.256 195.599 149.468 196.439 147.657C198.787 142.591 200.603 137.331 201.784 131.875C202.099 130.426 203.069 130.731 204.345 130.522L204.343 130.522Z" fill="#C7C9D9"/>
<path d="M42.0089 73.9623C42.779 75.5747 43.3391 74.2307 44.2067 73.9531C43.7542 74.8931 43.3685 75.6909 42.9883 76.4788C42.562 76.4678 42.1703 76.4588 41.4619 76.4394C42.7588 77.884 41.8223 79.0041 41.3668 80.1824C40.8509 81.5157 40.5431 82.9821 39.7806 84.1533C38.9318 85.4578 38.9851 86.9261 38.5088 88.2813C38.0135 89.6963 37.6917 91.1762 37.3306 92.6364C36.8811 94.4592 36.8996 94.4611 34.843 94.5648C36.3374 87.4058 38.722 80.6182 42.0064 73.9603L42.0089 73.9623Z" fill="#C7C9D9"/>
<path d="M36.9686 99.2495C38.4342 99.0435 39.7558 99.154 40.9333 99.5809C42.1109 100.008 43.0709 100.708 43.8135 101.68C44.5675 102.638 45.041 103.804 45.234 105.177C45.4251 106.537 45.2912 107.788 44.8323 108.929C44.3866 110.069 43.65 111.007 42.6226 111.744C41.6083 112.479 40.375 112.949 38.9226 113.153L33.7138 113.885L31.7598 99.9815L36.9686 99.2495ZM38.2928 110.252C39.5735 110.072 40.5212 109.582 41.1359 108.782C41.7505 107.982 41.9678 106.942 41.7878 105.661C41.6078 104.38 41.1112 103.434 40.298 102.821C39.4848 102.208 38.4379 101.992 37.1571 102.172L35.5529 102.397L36.6885 110.478L38.2928 110.252ZM50.4128 100.127L50.8081 102.939L55.3435 102.302L55.7109 104.916L51.1755 105.554L51.6041 108.604L56.7337 107.883L57.1151 110.596L48.5987 111.793L46.6448 97.8896L55.1611 96.6927L55.5424 99.406L50.4128 100.127ZM66.8992 109.221L63.27 104.379L62.458 104.493L63.1956 109.741L59.8089 110.217L57.8549 96.3141L63.539 95.5152C64.6349 95.3612 65.5927 95.4218 66.4123 95.6971C67.2451 95.9705 67.9003 96.417 68.3779 97.0366C68.8536 97.643 69.1489 98.3555 69.264 99.1741C69.3939 100.098 69.2458 100.961 68.8197 101.761C68.4068 102.56 67.7134 103.182 66.7394 103.629L70.7216 108.684L66.8992 109.221ZM62.1212 102.097L64.2206 101.802C64.8411 101.714 65.2819 101.498 65.5429 101.151C65.8171 100.803 65.9153 100.352 65.8373 99.797C65.7631 99.2689 65.5462 98.8752 65.1866 98.6161C64.8403 98.3551 64.3568 98.2682 63.7362 98.3554L61.6369 98.6505L62.1212 102.097ZM87.0152 92.2159L88.9692 106.119L85.5825 106.595L84.4106 98.2571L82.473 107.032L79.7399 107.416L75.436 99.4982L76.6106 107.856L73.2239 108.332L71.2699 94.4287L75.2706 93.8665L80.525 102.944L83.0343 92.7753L87.0152 92.2159ZM100.21 102.035L95.0206 102.764L94.5339 105.337L90.9887 105.835L94.0653 91.225L97.9868 90.6739L104.971 103.87L101.387 104.374L100.21 102.035ZM98.9707 99.5433L96.5323 94.6955L95.5444 100.025L98.9707 99.5433ZM115.045 88.2765L115.427 90.9898L111.743 91.5076L113.315 102.698L109.929 103.174L108.356 91.9835L104.672 92.5013L104.291 89.7879L115.045 88.2765ZM125.789 101.086C124.482 101.27 123.238 101.135 122.056 100.681C120.888 100.226 119.905 99.5028 119.105 98.511C118.318 97.5042 117.828 96.3208 117.637 94.9608C117.446 93.6009 117.591 92.335 118.073 91.1632C118.568 89.9896 119.314 89.023 120.311 88.2635C121.322 87.5021 122.48 87.0296 123.788 86.8459C125.095 86.6622 126.332 86.7979 127.5 87.2531C128.682 87.7065 129.659 88.4309 130.431 89.4264C131.217 90.42 131.706 91.5968 131.897 92.9567C132.088 94.3167 131.944 95.5892 131.464 96.7741C130.982 97.9459 130.243 98.9116 129.246 99.6711C128.248 100.431 127.096 100.902 125.789 101.086ZM125.355 97.9963C126.464 97.8404 127.296 97.3464 127.853 96.5142C128.422 95.6802 128.622 94.6558 128.451 93.4411C128.278 92.2131 127.804 91.2834 127.029 90.6518C126.265 90.0052 125.328 89.7598 124.219 89.9157C123.097 90.0734 122.25 90.5627 121.679 91.3836C121.12 92.2025 120.929 93.2326 121.103 94.4737C121.276 95.7017 121.744 96.6389 122.508 97.2856C123.283 97.9171 124.232 98.154 125.355 97.9963ZM138.278 96.5234L142.715 95.8999L143.082 98.5142L135.259 99.6136L133.305 85.7103L136.692 85.2343L138.278 96.5234ZM151.787 97.4321C150.48 97.6158 149.236 97.481 148.055 97.0276C146.887 96.5724 145.903 95.849 145.104 94.8572C144.316 93.8504 143.827 92.667 143.636 91.307C143.444 89.947 143.59 88.6812 144.071 87.5094C144.566 86.3358 145.312 85.3692 146.309 84.6097C147.32 83.8483 148.479 83.3757 149.786 83.192C151.093 83.0083 152.331 83.1441 153.499 83.5993C154.68 84.0526 155.657 84.777 156.43 85.7725C157.216 86.7661 157.704 87.9429 157.895 89.3029C158.087 90.6629 157.942 91.9353 157.462 93.1203C156.981 94.2921 156.241 95.2577 155.244 96.0172C154.247 96.7768 153.094 97.2484 151.787 97.4321ZM151.353 94.3425C152.462 94.1866 153.295 93.6926 153.851 92.8604C154.421 92.0263 154.62 91.002 154.449 89.7872C154.277 88.5593 153.803 87.6295 153.027 86.998C152.263 86.3514 151.327 86.106 150.217 86.2619C149.095 86.4196 148.248 86.9089 147.677 87.7297C147.119 88.5487 146.927 89.5788 147.101 90.8199C147.274 92.0478 147.742 92.9851 148.506 93.6317C149.282 94.2633 150.231 94.5002 151.353 94.3425ZM169.15 85.1561C168.835 84.7293 168.422 84.4304 167.914 84.2595C167.416 84.0736 166.851 84.0252 166.217 84.1143C165.121 84.2683 164.294 84.7548 163.736 85.5738C163.176 86.3795 162.98 87.3832 163.149 88.5847C163.329 89.8655 163.814 90.8207 164.602 91.4504C165.402 92.065 166.41 92.287 167.624 92.1163C168.456 91.9994 169.126 91.6898 169.635 91.1875C170.156 90.6833 170.493 90.0166 170.646 89.1872L166.348 89.7912L165.998 87.2958L173.365 86.2603L173.808 89.4094C173.676 90.2897 173.357 91.1356 172.852 91.9471C172.359 92.7568 171.683 93.4511 170.822 94.0299C169.961 94.6087 168.949 94.9798 167.787 95.1431C166.414 95.3361 165.144 95.2116 163.978 94.7696C162.823 94.3125 161.867 93.5919 161.109 92.6078C160.365 91.6218 159.896 90.4422 159.703 89.069C159.51 87.6959 159.636 86.4328 160.079 85.2798C160.535 84.1117 161.255 83.1555 162.241 82.411C163.225 81.6533 164.404 81.178 165.777 80.985C167.441 80.7512 168.897 80.9572 170.146 81.6031C171.408 82.247 172.324 83.256 172.894 84.6301L169.15 85.1561ZM178.271 79.3907L180.225 93.294L176.838 93.77L174.884 79.8666L178.271 79.3907ZM188.225 92.3112C187.208 92.454 186.274 92.417 185.422 92.2001C184.57 91.9832 183.855 91.5856 183.275 91.0073C182.709 90.4272 182.348 89.6834 182.194 88.7761L185.799 88.2695C185.924 88.777 186.158 89.148 186.5 89.3826C186.841 89.604 187.256 89.6804 187.744 89.6117C188.246 89.5412 188.626 89.3733 188.885 89.108C189.142 88.8296 189.242 88.4857 189.185 88.0763C189.136 87.733 188.978 87.4659 188.708 87.2748C188.452 87.0819 188.143 86.9369 187.779 86.84C187.428 86.7411 186.93 86.6429 186.283 86.5452C185.347 86.3941 184.575 86.2198 183.968 86.0224C183.361 85.8249 182.815 85.4842 182.33 85.0004C181.844 84.5166 181.541 83.839 181.418 82.9675C181.236 81.6736 181.563 80.5976 182.398 79.7397C183.232 78.8685 184.401 78.3272 185.906 78.1156C187.438 77.9004 188.725 78.0966 189.766 78.7042C190.805 79.2987 191.45 80.2448 191.7 81.5427L188.036 82.0577C187.946 81.6124 187.732 81.2857 187.393 81.0776C187.052 80.8562 186.644 80.7789 186.169 80.8457C185.76 80.9032 185.445 81.0618 185.226 81.3215C185.005 81.568 184.923 81.896 184.981 82.3053C185.044 82.7542 185.304 83.0744 185.762 83.2659C186.22 83.4574 186.918 83.6353 187.857 83.7996C188.797 83.9771 189.564 84.1655 190.158 84.3648C190.764 84.5623 191.309 84.8963 191.793 85.367C192.276 85.8376 192.577 86.4888 192.694 87.3206C192.805 88.1128 192.701 88.8612 192.383 89.5657C192.078 90.2683 191.569 90.8649 190.857 91.3555C190.145 91.846 189.268 92.1646 188.225 92.3112ZM203.902 75.7884L204.284 78.5018L200.6 79.0195L202.173 90.2095L198.786 90.6855L197.213 79.4955L193.529 80.0132L193.148 77.2999L203.902 75.7884ZM27.1284 132.987L23.4992 128.145L22.6872 128.259L23.4248 133.508L20.0381 133.984L18.0841 120.08L23.7682 119.282C24.8641 119.128 25.8219 119.188 26.6415 119.463C27.4743 119.737 28.1295 120.183 28.607 120.803C29.0827 121.409 29.3781 122.122 29.4931 122.94C29.623 123.865 29.4749 124.727 29.0489 125.527C28.636 126.326 27.9425 126.949 26.9686 127.395L30.9508 132.45L27.1284 132.987ZM22.3504 125.863L24.4497 125.568C25.0703 125.481 25.5111 125.264 25.7721 124.918C26.0463 124.569 26.1444 124.118 26.0665 123.563C25.9923 123.035 25.7754 122.642 25.4158 122.382C25.0694 122.121 24.586 122.035 23.9654 122.122L21.866 122.417L22.3504 125.863ZM35.2672 120.432L35.6624 123.245L40.1978 122.607L40.5653 125.222L36.0298 125.859L36.4585 128.909L41.5881 128.188L41.9694 130.902L33.4531 132.098L31.4991 118.195L40.0154 116.998L40.3968 119.711L35.2672 120.432ZM43.1091 123.632C42.9161 122.259 43.0416 120.996 43.4854 119.843C43.9274 118.677 44.6348 117.722 45.6076 116.98C46.5917 116.222 47.7572 115.749 49.1039 115.559C50.7544 115.327 52.2284 115.564 53.526 116.271C54.8236 116.977 55.7762 118.055 56.3838 119.504L52.6604 120.028C52.3015 119.486 51.8432 119.099 51.2856 118.868C50.7412 118.635 50.1455 118.564 49.4985 118.654C48.4555 118.801 47.6615 119.283 47.1165 120.1C46.5716 120.917 46.3845 121.933 46.5553 123.148C46.726 124.363 47.1858 125.288 47.9349 125.923C48.6839 126.558 49.58 126.802 50.6231 126.656C51.27 126.565 51.8231 126.332 52.2821 125.958C52.7544 125.582 53.0883 125.084 53.2839 124.464L57.0073 123.941C56.8228 125.502 56.2042 126.801 55.1515 127.837C54.097 128.86 52.7446 129.488 51.0941 129.72C49.7473 129.909 48.4975 129.782 47.3445 129.338C46.2028 128.879 45.2598 128.157 44.5153 127.171C43.7708 126.185 43.3021 125.005 43.1091 123.632ZM66.8394 127.548C65.5322 127.731 64.288 127.597 63.1068 127.143C61.9387 126.688 60.9551 125.965 60.156 124.973C59.3682 123.966 58.8787 122.783 58.6876 121.423C58.4965 120.063 58.6417 118.797 59.1233 117.625C59.6181 116.451 60.3642 115.485 61.3615 114.725C62.3721 113.964 63.5309 113.491 64.8381 113.308C66.1452 113.124 67.3828 113.26 68.5509 113.715C69.7321 114.168 70.7091 114.893 71.4818 115.888C72.2678 116.882 72.7563 118.058 72.9474 119.418C73.1386 120.778 72.9943 122.051 72.5145 123.236C72.0329 124.408 71.2934 125.373 70.2961 126.133C69.2988 126.892 68.1465 127.364 66.8394 127.548ZM66.4051 124.458C67.5142 124.302 68.3469 123.808 68.9032 122.976C69.4727 122.142 69.672 121.118 69.5013 119.903C69.3287 118.675 68.8547 117.745 68.0793 117.114C67.3152 116.467 66.3786 116.222 65.2695 116.377C64.1472 116.535 63.3004 117.024 62.7291 117.845C62.1709 118.664 61.9791 119.694 62.1535 120.935C62.3261 122.163 62.7944 123.101 63.5585 123.747C64.334 124.379 65.2828 124.616 66.4051 124.458ZM90.1006 109.959L92.0545 123.863L88.6678 124.338L87.496 116L85.5584 124.775L82.8252 125.16L78.5214 117.242L79.696 125.599L76.3093 126.075L74.3553 112.172L78.356 111.61L83.6104 120.687L86.1197 110.519L90.1006 109.959ZM108.776 107.334L110.73 121.238L107.344 121.714L106.172 113.376L104.234 122.151L101.501 122.535L97.1972 114.617L98.3718 122.975L94.9851 123.451L93.0311 109.547L97.0318 108.985L102.286 118.062L104.796 107.894L108.776 107.334ZM115.475 109.16L115.87 111.972L120.406 111.335L120.773 113.949L116.238 114.587L116.666 117.637L121.796 116.916L122.177 119.629L113.661 120.826L111.707 106.923L120.223 105.726L120.605 108.439L115.475 109.16ZM137.309 117.502L133.922 117.978L127.053 110.199L128.258 118.774L124.871 119.25L122.917 105.347L126.304 104.871L133.179 112.69L131.968 104.075L135.355 103.599L137.309 117.502ZM143.514 102.452C144.979 102.246 146.301 102.357 147.478 102.784C148.656 103.211 149.616 103.911 150.359 104.883C151.113 105.841 151.586 107.007 151.779 108.38C151.97 109.74 151.836 110.991 151.377 112.132C150.932 113.272 150.195 114.21 149.168 114.947C148.153 115.682 146.92 116.152 145.468 116.356L140.259 117.088L138.305 103.184L143.514 102.452ZM144.838 113.455C146.119 113.275 147.066 112.785 147.681 111.985C148.296 111.185 148.513 110.145 148.333 108.864C148.153 107.583 147.656 106.637 146.843 106.024C146.03 105.411 144.983 105.195 143.702 105.375L142.098 105.6L143.234 113.681L144.838 113.455ZM156.958 103.33L157.353 106.142L161.889 105.505L162.256 108.119L157.721 108.757L158.149 111.807L163.279 111.086L163.66 113.799L155.144 114.996L153.19 101.093L161.706 99.8956L162.088 102.609L156.958 103.33ZM169.609 98.785C171.074 98.579 172.396 98.6895 173.574 99.1164C174.751 99.5434 175.711 100.243 176.454 101.216C177.208 102.174 177.681 103.339 177.874 104.712C178.065 106.072 177.931 107.323 177.473 108.465C177.027 109.605 176.29 110.543 175.263 111.28C174.249 112.015 173.015 112.484 171.563 112.688L166.354 113.42L164.4 99.517L169.609 98.785ZM170.933 109.788C172.214 109.608 173.161 109.118 173.776 108.318C174.391 107.518 174.608 106.477 174.428 105.197C174.248 103.916 173.752 102.969 172.938 102.356C172.125 101.744 171.078 101.527 169.797 101.707L168.193 101.933L169.329 110.013L170.933 109.788ZM193.028 95.4936L193.41 98.2069L187.745 99.003L188.157 101.934L192.396 101.339L192.766 103.973L188.527 104.568L189.318 110.193L185.931 110.669L183.977 96.7656L193.028 95.4936ZM203.852 108.292C202.545 108.475 201.301 108.341 200.12 107.887C198.952 107.432 197.968 106.709 197.169 105.717C196.381 104.71 195.892 103.527 195.7 102.167C195.509 100.807 195.655 99.5408 196.136 98.369C196.631 97.1954 197.377 96.2289 198.374 95.4693C199.385 94.7079 200.544 94.2354 201.851 94.0517C203.158 93.868 204.396 94.0037 205.564 94.4589C206.745 94.9123 207.722 95.6367 208.495 96.6322C209.281 97.6258 209.769 98.8026 209.96 100.163C210.151 101.523 210.007 102.795 209.527 103.98C209.046 105.152 208.306 106.117 207.309 106.877C206.312 107.636 205.159 108.108 203.852 108.292ZM203.418 105.202C204.527 105.046 205.36 104.552 205.916 103.72C206.486 102.886 206.685 101.862 206.514 100.647C206.342 99.4189 205.868 98.4892 205.092 97.8576C204.328 97.211 203.391 96.9656 202.282 97.1215C201.16 97.2792 200.313 97.7685 199.742 98.5894C199.184 99.4083 198.992 100.438 199.166 101.68C199.339 102.907 199.807 103.845 200.571 104.491C201.347 105.123 202.296 105.36 203.418 105.202ZM220.412 105.823L216.783 100.981L215.971 101.095L216.709 106.343L213.322 106.819L211.368 92.9161L217.052 92.1172C218.148 91.9632 219.106 92.0238 219.926 92.2991C220.758 92.5725 221.414 93.019 221.891 93.6386C222.367 94.245 222.662 94.9575 222.777 95.7761C222.907 96.7003 222.759 97.5627 222.333 98.3631C221.92 99.1617 221.227 99.7842 220.253 100.231L224.235 105.286L220.412 105.823ZM215.634 98.6986L217.734 98.4036C218.354 98.3164 218.795 98.0996 219.056 97.7532C219.33 97.405 219.429 96.9536 219.351 96.399C219.276 95.8709 219.059 95.4773 218.7 95.2181C218.354 94.9571 217.87 94.8702 217.249 94.9574L215.15 95.2525L215.634 98.6986ZM52.7426 147.706C51.7259 147.849 50.7916 147.812 49.9398 147.595C49.088 147.378 48.3724 146.98 47.7929 146.402C47.2267 145.822 46.8663 145.078 46.7119 144.171L50.3165 143.664C50.4416 144.172 50.6756 144.543 51.0182 144.777C51.359 144.999 51.7737 145.075 52.2622 145.006C52.7639 144.936 53.1443 144.768 53.4032 144.503C53.6603 144.224 53.7601 143.88 53.7025 143.471C53.6543 143.128 53.4956 142.86 53.2263 142.669C52.9703 142.476 52.6605 142.332 52.2968 142.235C51.9463 142.136 51.4478 142.037 50.8012 141.94C49.8644 141.789 49.0926 141.614 48.4859 141.417C47.8792 141.219 47.3331 140.879 46.8477 140.395C46.3623 139.911 46.0584 139.234 45.9359 138.362C45.7541 137.068 46.0809 135.992 46.9162 135.134C47.7498 134.263 48.9192 133.722 50.4244 133.51C51.956 133.295 53.2425 133.491 54.2838 134.099C55.3234 134.693 55.968 135.639 56.2177 136.937L52.5537 137.452C52.4642 137.007 52.25 136.68 51.9111 136.472C51.5703 136.251 51.1622 136.173 50.6869 136.24C50.2776 136.298 49.9632 136.456 49.7439 136.716C49.5227 136.963 49.4409 137.291 49.4984 137.7C49.5615 138.149 49.822 138.469 50.2797 138.66C50.7375 138.852 51.4357 139.03 52.3744 139.194C53.3149 139.372 54.0819 139.56 54.6755 139.759C55.2822 139.957 55.8273 140.291 56.3108 140.762C56.7944 141.232 57.0946 141.883 57.2115 142.715C57.3228 143.507 57.2193 144.256 56.9009 144.96C56.5958 145.663 56.0872 146.259 55.3752 146.75C54.6632 147.241 53.7856 147.559 52.7426 147.706ZM62.1866 134.826L62.5819 137.638L67.1173 137.001L67.4847 139.615L62.9493 140.253L63.378 143.303L68.5076 142.582L68.8889 145.295L60.3726 146.492L58.4186 132.589L66.9349 131.392L67.3162 134.105L62.1866 134.826ZM84.0205 143.169L80.6338 143.644L73.7642 135.865L74.9694 144.441L71.5827 144.917L69.6287 131.013L73.0155 130.537L79.8906 138.356L78.6798 129.741L82.0665 129.265L84.0205 143.169ZM92.0206 142.186C91.0039 142.328 90.0697 142.291 89.2179 142.075C88.3661 141.858 87.6504 141.46 87.071 140.882C86.5047 140.302 86.1444 139.558 85.9899 138.65L89.5945 138.144C89.7197 138.651 89.9536 139.022 90.2963 139.257C90.6371 139.478 91.0517 139.555 91.5403 139.486C92.042 139.416 92.4223 139.248 92.6813 138.982C92.9383 138.704 93.0381 138.36 92.9806 137.951C92.9323 137.607 92.7736 137.34 92.5044 137.149C92.2484 136.956 91.9385 136.811 91.5748 136.714C91.2243 136.615 90.7258 136.517 90.0793 136.42C89.1424 136.269 88.3707 136.094 87.764 135.897C87.1572 135.699 86.6112 135.359 86.1258 134.875C85.6404 134.391 85.3365 133.713 85.214 132.842C85.0321 131.548 85.3589 130.472 86.1943 129.614C87.0278 128.743 88.1972 128.202 89.7024 127.99C91.234 127.775 92.5205 127.971 93.5619 128.579C94.6014 129.173 95.246 130.119 95.4958 131.417L91.8318 131.932C91.7423 131.487 91.528 131.16 91.1891 130.952C90.8483 130.731 90.4402 130.653 89.9649 130.72C89.5556 130.778 89.2413 130.936 89.022 131.196C88.8008 131.442 88.719 131.77 88.7765 132.18C88.8396 132.629 89.1 132.949 89.5578 133.14C90.0156 133.332 90.7138 133.51 91.6524 133.674C92.593 133.851 93.36 134.04 93.9535 134.239C94.5602 134.437 95.1054 134.771 95.5889 135.241C96.0724 135.712 96.3727 136.363 96.4896 137.195C96.6009 137.987 96.4974 138.736 96.179 139.44C95.8738 140.143 95.3652 140.739 94.6532 141.23C93.9412 141.72 93.0637 142.039 92.0206 142.186ZM101.083 126.593L103.037 140.496L99.6506 140.972L97.6967 127.068L101.083 126.593ZM114.035 124.772L114.416 127.486L110.732 128.003L112.305 139.193L108.918 139.669L107.345 128.479L103.662 128.997L103.28 126.284L114.035 124.772ZM119.616 123.988L121.57 137.891L118.183 138.367L116.229 124.464L119.616 123.988ZM135.617 121.739L132.64 136.336L128.401 136.931L121.516 123.721L125.12 123.214L130.042 133.227L132.032 122.243L135.617 121.739ZM141.296 123.708L141.691 126.52L146.227 125.883L146.594 128.497L142.059 129.135L142.487 132.185L147.617 131.464L147.998 134.177L139.482 135.374L137.528 121.471L146.044 120.274L146.426 122.987L141.296 123.708ZM160.434 132.571C159.418 132.714 158.483 132.677 157.631 132.46C156.78 132.243 156.064 131.845 155.485 131.267C154.918 130.687 154.558 129.943 154.404 129.036L158.008 128.529C158.133 129.036 158.367 129.408 158.71 129.642C159.051 129.864 159.465 129.94 159.954 129.871C160.456 129.801 160.836 129.633 161.095 129.368C161.352 129.089 161.452 128.745 161.394 128.336C161.346 127.993 161.187 127.725 160.918 127.534C160.662 127.341 160.352 127.196 159.988 127.099C159.638 127.001 159.139 126.902 158.493 126.805C157.556 126.654 156.784 126.479 156.178 126.282C155.571 126.084 155.025 125.744 154.539 125.26C154.054 124.776 153.75 124.098 153.628 123.227C153.446 121.933 153.773 120.857 154.608 119.999C155.441 119.128 156.611 118.587 158.116 118.375C159.648 118.16 160.934 118.356 161.975 118.964C163.015 119.558 163.66 120.504 163.909 121.802L160.245 122.317C160.156 121.872 159.942 121.545 159.603 121.337C159.262 121.116 158.854 121.038 158.379 121.105C157.969 121.163 157.655 121.321 157.436 121.581C157.214 121.828 157.133 122.155 157.19 122.565C157.253 123.014 157.514 123.334 157.971 123.525C158.429 123.717 159.127 123.895 160.066 124.059C161.007 124.237 161.774 124.425 162.367 124.624C162.974 124.822 163.519 125.156 164.002 125.626C164.486 126.097 164.786 126.748 164.903 127.58C165.014 128.372 164.911 129.121 164.593 129.825C164.287 130.528 163.779 131.124 163.067 131.615C162.355 132.105 161.477 132.424 160.434 132.571ZM176.125 130.224L170.588 124.741L171.451 130.881L168.064 131.357L166.11 117.454L169.497 116.978L170.354 123.078L174.131 116.326L178.112 115.767L173.683 123.337L180.264 129.642L176.125 130.224ZM183.802 114.967L185.756 128.871L182.369 129.347L180.415 115.443L183.802 114.967ZM201.143 126.708L197.756 127.184L190.887 119.404L192.092 127.98L188.705 128.456L186.751 114.553L190.138 114.077L197.013 121.896L195.802 113.281L199.189 112.805L201.143 126.708Z" fill="#C7C9D9"/>
</svg>
