<svg width="66" height="66" viewBox="0 0 66 66" fill="none" xmlns="http://www.w3.org/2000/svg">
<path d="M42.6505 49.5C42.2059 49.5003 41.7713 49.3685 41.4016 49.1215L33 43.5187L24.5985 49.1195C24.1093 49.4284 23.5221 49.5426 22.9527 49.4397C22.3834 49.3368 21.8734 49.0242 21.5233 48.5636C21.315 48.2738 21.1784 47.9388 21.1246 47.586C21.0709 47.2333 21.1015 46.8728 21.2139 46.5341L24.5335 36.5774L16.7063 32.2307C16.2573 31.9808 15.9001 31.5936 15.6871 31.1259C15.4742 30.6582 15.4167 30.1346 15.523 29.6318C15.6293 29.129 15.8939 28.6735 16.2779 28.3321C16.662 27.9906 17.1453 27.7812 17.6571 27.7344L27.1219 26.8744L30.6282 18.1087C30.8177 17.6346 31.145 17.2282 31.5678 16.9419C31.9906 16.6556 32.4895 16.5026 33 16.5026C33.5106 16.5026 34.0095 16.6556 34.4323 16.9419C34.8551 17.2282 35.1824 17.6346 35.3719 18.1087L38.8782 26.8744L48.343 27.7344C48.8551 27.7807 49.3389 27.9899 49.7233 28.3314C50.1077 28.6729 50.3725 29.1286 50.4788 29.6317C50.585 30.1348 50.5272 30.6587 50.3137 31.1265C50.1003 31.5943 49.7424 31.9813 49.2928 32.2307L41.4666 36.5795L44.7862 46.5362C44.8989 46.8746 44.9296 47.235 44.8758 47.5876C44.8219 47.9403 44.6851 48.2751 44.4766 48.5645C44.268 48.8539 43.9937 49.0896 43.6762 49.2522C43.3588 49.4149 43.0072 49.4998 42.6505 49.5ZM33 41.25C33.2038 41.2499 33.4029 41.3102 33.5724 41.4232L42.5443 47.4045C42.5861 47.4281 42.6348 47.4364 42.682 47.4279C42.7293 47.4194 42.7721 47.3947 42.8031 47.3581C42.8212 47.3341 42.8331 47.306 42.8376 47.2763C42.8421 47.2466 42.8391 47.2162 42.8289 47.1879L39.2401 36.4196C39.1642 36.1915 39.1703 35.944 39.2575 35.7199C39.3447 35.4958 39.5074 35.3092 39.7176 35.1924L48.2925 30.4281C48.3567 30.3928 48.4079 30.3378 48.4385 30.2712C48.4691 30.2046 48.4774 30.1299 48.4623 30.0582C48.4471 29.9865 48.4093 29.9216 48.3544 29.873C48.2995 29.8245 48.2304 29.7949 48.1574 29.7887L38.0635 28.875C37.8739 28.858 37.6928 28.7889 37.5401 28.6753C37.3874 28.5618 37.2691 28.4081 37.1983 28.2315L33.4569 18.8719C33.4132 18.7885 33.3476 18.7186 33.2671 18.6698C33.1865 18.6211 33.0942 18.5953 33 18.5953C32.9059 18.5953 32.8136 18.6211 32.733 18.6698C32.6525 18.7186 32.5869 18.7885 32.5432 18.8719L28.8018 28.2274C28.7316 28.4048 28.6136 28.5593 28.4609 28.6736C28.3081 28.7879 28.1266 28.8576 27.9366 28.875L17.8427 29.7928C17.7701 29.7995 17.7014 29.8293 17.6469 29.8778C17.5923 29.9263 17.5547 29.991 17.5395 30.0624C17.5243 30.1338 17.5323 30.2082 17.5624 30.2747C17.5924 30.3412 17.643 30.3964 17.7066 30.4322L26.2825 35.1966C26.4927 35.3134 26.6554 35.4999 26.7426 35.724C26.8298 35.9481 26.8359 36.1956 26.76 36.4237L23.1702 47.189C23.16 47.2172 23.157 47.2476 23.1615 47.2773C23.166 47.307 23.1778 47.3351 23.196 47.3591C23.227 47.3958 23.2698 47.4204 23.317 47.4289C23.3643 47.4374 23.413 47.4291 23.4548 47.4055L32.4267 41.4243C32.5963 41.3107 32.7959 41.25 33 41.25Z" fill="black"/>
<path d="M58.1193 47.4375C57.6747 47.4378 57.2401 47.3061 56.8704 47.059L48.4689 41.4563L45.9474 43.1372C45.7199 43.289 45.4414 43.3442 45.1731 43.2906C44.9049 43.237 44.6689 43.0791 44.5171 42.8515C44.3653 42.624 44.3101 42.3454 44.3637 42.0772C44.4173 41.809 44.5752 41.573 44.8028 41.4212L47.8965 39.3587C48.066 39.2456 48.2651 39.1853 48.4689 39.1853C48.6726 39.1853 48.8717 39.2456 49.0412 39.3587L58.0131 45.3399C58.0549 45.3635 58.1036 45.3718 58.1508 45.3633C58.1981 45.3549 58.2409 45.3302 58.2719 45.2935C58.29 45.2696 58.3019 45.2414 58.3064 45.2117C58.3109 45.182 58.3079 45.1516 58.2977 45.1234L54.7089 34.3571C54.633 34.129 54.6391 33.8815 54.7263 33.6574C54.8135 33.4333 54.9762 33.2467 55.1864 33.1299L63.7613 28.3656C63.8255 28.3303 63.8767 28.2753 63.9073 28.2087C63.9379 28.1421 63.9462 28.0674 63.9311 27.9957C63.9159 27.924 63.8781 27.8591 63.8232 27.8106C63.7683 27.762 63.6992 27.7324 63.6262 27.7262L53.5323 26.8125C53.3427 26.7955 53.1616 26.7264 53.0089 26.6128C52.8562 26.4993 52.7379 26.3457 52.6671 26.169L48.9257 16.8094C48.882 16.726 48.8164 16.6561 48.7359 16.6074C48.6553 16.5586 48.563 16.5328 48.4689 16.5328C48.3747 16.5328 48.2824 16.5586 48.2018 16.6074C48.1213 16.6561 48.0557 16.726 48.012 16.8094L44.6831 25.1336C44.6328 25.2594 44.5581 25.3741 44.4634 25.471C44.3687 25.568 44.2559 25.6454 44.1313 25.6987C44.0067 25.752 43.8728 25.7803 43.7373 25.7819C43.6018 25.7835 43.4673 25.7584 43.3415 25.708C43.2157 25.6577 43.101 25.583 43.0041 25.4883C42.9071 25.3936 42.8297 25.2808 42.7764 25.1562C42.7231 25.0316 42.6948 24.8977 42.6932 24.7622C42.6916 24.6267 42.7167 24.4922 42.7671 24.3664L46.097 16.0432C46.2865 15.569 46.6138 15.1626 47.0366 14.8763C47.4594 14.59 47.9583 14.437 48.4689 14.437C48.9794 14.437 49.4783 14.59 49.9011 14.8763C50.3239 15.1626 50.6512 15.569 50.8407 16.0432L54.347 24.8088L63.8118 25.6688C64.3239 25.7151 64.8077 25.9243 65.1921 26.2658C65.5765 26.6073 65.8413 27.063 65.9476 27.5661C66.0538 28.0692 65.996 28.5931 65.7825 29.0609C65.5691 29.5287 65.2112 29.9157 64.7616 30.1651L56.9354 34.5139L60.255 44.4706C60.3683 44.8092 60.3995 45.1699 60.3459 45.523C60.2924 45.876 60.1557 46.2113 59.9471 46.5011C59.7384 46.7909 59.4639 47.0269 59.1461 47.1897C58.8283 47.3526 58.4764 47.4375 58.1193 47.4375Z" fill="black"/>
<path d="M7.88086 47.4375C7.52406 47.4375 7.17237 47.3527 6.85476 47.1901C6.53715 47.0275 6.26271 46.7918 6.05405 46.5024C5.84538 46.213 5.70847 45.8781 5.65459 45.5254C5.6007 45.1727 5.63138 44.8122 5.74411 44.4737L9.0637 34.517L1.23755 30.1682C0.788514 29.9183 0.431343 29.5311 0.218392 29.0634C0.00544146 28.5957 -0.0520898 28.0721 0.0542317 27.5693C0.160553 27.0665 0.425136 26.611 0.809195 26.2696C1.19326 25.9281 1.67659 25.7187 2.18836 25.6719L11.6532 24.8119L15.1594 16.0462C15.349 15.5721 15.6763 15.1657 16.099 14.8794C16.5218 14.5931 17.0207 14.4401 17.5313 14.4401C18.0419 14.4401 18.5408 14.5931 18.9636 14.8794C19.3863 15.1657 19.7136 15.5721 19.9032 16.0462L23.2331 24.3695C23.3348 24.6235 23.3315 24.9076 23.2237 25.1592C23.116 25.4109 22.9128 25.6094 22.6587 25.7111C22.4046 25.8129 22.1205 25.8095 21.8689 25.7018C21.6173 25.5941 21.4188 25.3908 21.317 25.1367L17.9881 16.8094C17.9445 16.726 17.8788 16.6561 17.7983 16.6073C17.7178 16.5586 17.6254 16.5328 17.5313 16.5328C17.4372 16.5328 17.3448 16.5586 17.2643 16.6073C17.1838 16.6561 17.1181 16.726 17.0745 16.8094L13.3331 26.1649C13.2629 26.3423 13.1449 26.4968 12.9921 26.6111C12.8394 26.7254 12.6579 26.7951 12.4679 26.8125L2.37399 27.7303C2.3013 27.737 2.23267 27.7668 2.17812 27.8153C2.12357 27.8638 2.08594 27.9285 2.07074 27.9999C2.05554 28.0713 2.06356 28.1457 2.09362 28.2122C2.12369 28.2787 2.17423 28.3339 2.23786 28.3697L10.8137 33.1341C11.0239 33.2509 11.1867 33.4374 11.2738 33.6615C11.361 33.8856 11.3672 34.1331 11.2912 34.3612L7.70142 45.1265C7.69121 45.1547 7.68822 45.1851 7.69272 45.2148C7.69723 45.2445 7.70908 45.2726 7.7272 45.2966C7.75821 45.3333 7.80102 45.358 7.84827 45.3664C7.89552 45.3749 7.94424 45.3666 7.98605 45.343L16.9579 39.3618C17.1274 39.2487 17.3265 39.1884 17.5303 39.1884C17.734 39.1884 17.9331 39.2487 18.1026 39.3618L21.1964 41.4243C21.309 41.4994 21.4058 41.5961 21.4811 41.7086C21.5565 41.8212 21.6089 41.9475 21.6354 42.0803C21.6619 42.2131 21.6621 42.3498 21.6357 42.4827C21.6094 42.6156 21.5572 42.7419 21.482 42.8546C21.4069 42.9673 21.3102 43.0641 21.1977 43.1394C21.0851 43.2147 20.9588 43.2672 20.826 43.2937C20.6932 43.3202 20.5564 43.3203 20.4236 43.294C20.2907 43.2677 20.1643 43.2154 20.0517 43.1403L17.5313 41.4562L9.1297 47.059C8.76008 47.306 8.32543 47.4378 7.88086 47.4375Z" fill="black"/>
<path d="M33 8.25C32.7265 8.25 32.4642 8.14135 32.2708 7.94795C32.0774 7.75456 31.9688 7.49225 31.9688 7.21875V3.09375C31.9688 2.82025 32.0774 2.55794 32.2708 2.36455C32.4642 2.17115 32.7265 2.0625 33 2.0625C33.2735 2.0625 33.5358 2.17115 33.7292 2.36455C33.9226 2.55794 34.0312 2.82025 34.0312 3.09375V7.21875C34.0312 7.49225 33.9226 7.75456 33.7292 7.94795C33.5358 8.14135 33.2735 8.25 33 8.25Z" fill="black"/>
<path d="M23.7186 12.375C23.4452 12.375 23.1829 12.2663 22.9896 12.0729L19.8752 8.95745C19.6873 8.76295 19.5834 8.50246 19.5857 8.23207C19.5881 7.96168 19.6965 7.70303 19.8877 7.51182C20.0789 7.32062 20.3376 7.21217 20.608 7.20982C20.8784 7.20747 21.1389 7.31141 21.3334 7.49926L24.4477 10.6147C24.5919 10.7589 24.6901 10.9426 24.7299 11.1426C24.7696 11.3426 24.7492 11.55 24.6712 11.7384C24.5932 11.9268 24.461 12.0878 24.2915 12.2011C24.1219 12.3145 23.9226 12.375 23.7186 12.375Z" fill="black"/>
<path d="M42.2813 12.375C42.0773 12.375 41.878 12.3145 41.7085 12.2011C41.5389 12.0878 41.4068 11.9268 41.3287 11.7384C41.2507 11.55 41.2303 11.3426 41.27 11.1426C41.3098 10.9426 41.408 10.7589 41.5522 10.6147L44.6666 7.49926C44.8611 7.31141 45.1215 7.20747 45.3919 7.20982C45.6623 7.21217 45.921 7.32062 46.1122 7.51182C46.3034 7.70303 46.4118 7.96168 46.4142 8.23207C46.4165 8.50246 46.3126 8.76295 46.1247 8.95745L43.0104 12.0729C42.817 12.2663 42.5548 12.375 42.2813 12.375Z" fill="black"/>
<path d="M33 63.9375C32.7265 63.9375 32.4642 63.8289 32.2708 63.6355C32.0774 63.4421 31.9688 63.1798 31.9688 62.9062V58.7812C31.9688 58.5077 32.0774 58.2454 32.2708 58.052C32.4642 57.8586 32.7265 57.75 33 57.75C33.2735 57.75 33.5358 57.8586 33.7292 58.052C33.9226 58.2454 34.0312 58.5077 34.0312 58.7812V62.9062C34.0312 63.1798 33.9226 63.4421 33.7292 63.6355C33.5358 63.8289 33.2735 63.9375 33 63.9375Z" fill="black"/>
<path d="M20.6043 58.8029C20.4003 58.8031 20.2008 58.7427 20.0311 58.6295C19.8614 58.5162 19.7291 58.3552 19.651 58.1667C19.5728 57.9783 19.5523 57.7709 19.592 57.5708C19.6318 57.3707 19.73 57.1868 19.8742 57.0426L22.9886 53.9272C23.1819 53.7336 23.4443 53.6249 23.7178 53.6248C23.9914 53.6247 24.2538 53.7333 24.4473 53.9266C24.6408 54.12 24.7495 54.3823 24.7496 54.6559C24.7497 54.9294 24.6412 55.1918 24.4478 55.3853L21.3334 58.5018C21.1399 58.6948 20.8777 58.8031 20.6043 58.8029Z" fill="black"/>
<path d="M45.3956 58.8029C45.1222 58.8031 44.86 58.6948 44.6665 58.5018L41.5521 55.3853C41.3587 55.1918 41.2501 54.9294 41.2502 54.6559C41.2503 54.3823 41.3591 54.12 41.5526 53.9266C41.7461 53.7333 42.0085 53.6247 42.2821 53.6248C42.5556 53.6249 42.8179 53.7336 43.0113 53.9272L46.1257 57.0426C46.2699 57.1868 46.3681 57.3707 46.4079 57.5708C46.4476 57.7709 46.4271 57.9783 46.3489 58.1667C46.2708 58.3552 46.1385 58.5162 45.9688 58.6295C45.7991 58.7427 45.5996 58.8031 45.3956 58.8029Z" fill="black"/>
</svg>
