<svg width="48" height="48" viewBox="0 0 48 48" fill="none" xmlns="http://www.w3.org/2000/svg">
<g clip-path="url(#clip0_209_828)">
<path d="M24.0069 42.5116C34.2268 42.5116 42.5116 34.2268 42.5116 24.0069C42.5116 13.787 34.2268 5.5022 24.0069 5.5022C13.787 5.5022 5.5022 13.787 5.5022 24.0069C5.5022 34.2268 13.787 42.5116 24.0069 42.5116Z" fill="#FDB217"/>
<path d="M24.0068 33.5329C29.2679 33.5329 33.5329 29.2679 33.5329 24.0068C33.5329 18.7457 29.2679 14.4807 24.0068 14.4807C18.7457 14.4807 14.4807 18.7457 14.4807 24.0068C14.4807 29.2679 18.7457 33.5329 24.0068 33.5329Z" fill="#F68E1E"/>
<path d="M24.9102 0H23.0898V3.69547H24.9102V0Z" fill="#FDB217"/>
<path d="M12.7979 2.75681L11.2214 3.66699L13.0692 6.86736L14.6456 5.95718L12.7979 2.75681Z" fill="#FDB217"/>
<path d="M3.66287 11.2165L2.75269 12.793L5.95305 14.6407L6.86323 13.0642L3.66287 11.2165Z" fill="#FDB217"/>
<path d="M0 23.0761L0 24.8965H3.69546V23.0761H0Z" fill="#FDB217"/>
<path d="M2.76072 35.2165L3.6709 36.793L6.87126 34.9452L5.96108 33.3688L2.76072 35.2165Z" fill="#FDB217"/>
<path d="M11.2021 44.3332L12.7786 45.2434L14.6263 42.043L13.0498 41.1329L11.2021 44.3332Z" fill="#FDB217"/>
<path d="M23.0898 48H24.9102V44.3045H23.0898V48Z" fill="#FDB217"/>
<path d="M35.2075 45.2434L36.7839 44.3333L34.9362 41.1329L33.3597 42.0431L35.2075 45.2434Z" fill="#FDB217"/>
<path d="M44.3222 36.795L45.2324 35.2185L42.0321 33.3708L41.1219 34.9473L44.3222 36.795Z" fill="#FDB217"/>
<path d="M48 24.9102V23.0898H44.3045V24.9102H48Z" fill="#FDB217"/>
<path d="M45.2405 12.795L44.3303 11.2185L41.13 13.0662L42.0401 14.6427L45.2405 12.795Z" fill="#FDB217"/>
<path d="M36.7925 3.68069L35.2161 2.77051L33.3683 5.97088L34.9448 6.88105L36.7925 3.68069Z" fill="#FDB217"/>
</g>
<defs>
<clipPath id="clip0_209_828">
<rect width="48" height="48" fill="white"/>
</clipPath>
</defs>
</svg>
