<svg width="28" height="36" viewBox="0 0 28 36" fill="none" xmlns="http://www.w3.org/2000/svg">
<path d="M27.931 21.4138C27.931 22.6055 26.467 23.5878 26.1737 24.6864C25.8711 25.8222 26.6369 27.405 26.062 28.3989C25.4778 29.409 23.7204 29.5301 22.9011 30.3494C22.0818 31.1687 21.9608 32.926 20.9506 33.5103C19.9567 34.0852 18.374 33.3194 17.2381 33.622C16.1395 33.9153 15.1572 35.3793 13.9655 35.3793C12.7738 35.3793 11.7916 33.9153 10.6929 33.622C9.55707 33.3194 7.97431 34.0852 6.98043 33.5103C5.97026 32.926 5.84922 31.1687 5.02991 30.3494C4.2106 29.5301 2.45328 29.409 1.86905 28.3989C1.29414 27.405 2.05991 25.8222 1.75733 24.6864C1.46405 23.5878 0 22.6055 0 21.4138C0 20.2221 1.46405 19.2398 1.75733 18.1412C2.05991 17.0053 1.29414 15.4226 1.86905 14.4287C2.45328 13.4185 4.2106 13.2975 5.02991 12.4782C5.84922 11.6589 5.97026 9.90155 6.98043 9.31732C7.97431 8.74241 9.55707 9.50819 10.6929 9.2056C11.7916 8.91232 12.7738 7.44827 13.9655 7.44827C15.1572 7.44827 16.1395 8.91232 17.2381 9.2056C18.374 9.50819 19.9567 8.74241 20.9506 9.31732C21.9608 9.90155 22.0818 11.6589 22.9011 12.4782C23.7204 13.2975 25.4778 13.4185 26.062 14.4287C26.6369 15.4226 25.8711 17.0053 26.1737 18.1412C26.467 19.2398 27.931 20.2221 27.931 21.4138Z" fill="black"/>
<path d="M18.0017 17.2521L12.6855 22.5683L9.92959 19.8148C9.3314 19.2166 8.3608 19.2166 7.76261 19.8148C7.16442 20.413 7.16442 21.3836 7.76261 21.9818L11.6287 25.8479C12.2106 26.4298 13.1556 26.4298 13.7375 25.8479L20.1663 19.4191C20.7645 18.8209 20.7645 17.8503 20.1663 17.2521C19.5681 16.6539 18.5998 16.6539 18.0017 17.2521Z" fill="#F8F8F8"/>
</svg>
